<?xml version="1.0" standalone="no"?>
<!DOCTYPE svg PUBLIC "-//W3C//DTD SVG 20010904//EN"
 "http://www.w3.org/TR/2001/REC-SVG-20010904/DTD/svg10.dtd">
<svg version="1.0" xmlns="http://www.w3.org/2000/svg"
 width="1000.000000pt" height="1000.000000pt" viewBox="0 0 1000.000000 1000.000000"
 preserveAspectRatio="xMidYMid meet">
<metadata>
Created by potrace 1.11, written by Peter Selinger 2001-2013
</metadata>
<g transform="translate(0.000000,1000.000000) scale(0.100000,-0.100000)"
fill="#000000" stroke="none">
<path d="M2484 8786 c-76 -19 -192 -77 -251 -127 -72 -61 -143 -152 -177 -229
-16 -36 -30 -66 -31 -67 0 -2 -39 11 -86 27 -221 79 -516 81 -739 5 -90 -30
-210 -91 -294 -147 -85 -58 -243 -219 -301 -308 -230 -354 -258 -774 -75
-1146 114 -233 291 -410 527 -528 182 -91 333 -122 562 -113 145 5 239 24 364
72 20 8 39 15 41 15 6 0 31 -73 28 -83 -1 -4 381 -522 849 -1150 1310 -1756
1334 -1788 1332 -1797 -1 -4 -246 -429 -543 -945 -298 -517 -552 -959 -565
-984 -150 -298 -54 -586 226 -678 131 -43 165 -44 1704 -41 1348 3 1475 5
1533 21 297 81 421 314 321 609 -29 86 0 34 -599 1072 -297 516 -542 942 -543
946 -2 9 19 38 1332 1797 468 628 850 1146 849 1150 -3 10 22 83 28 83 3 0 21
-7 40 -15 107 -44 220 -67 365 -72 229 -9 380 22 562 113 130 65 201 117 308
223 103 104 171 200 230 326 290 619 -28 1357 -681 1580 -110 37 -226 55 -365
55 -144 0 -258 -18 -374 -60 -47 -16 -85 -29 -86 -27 -82 168 -121 224 -211
299 -58 49 -188 112 -262 127 -81 17 -4948 14 -5018 -3z"/>
</g>
</svg>
